<svg
	xmlns="http://www.w3.org/2000/svg" width="496.834" height="430.908" viewBox="0 0 131.454 114.011">
	<g fill-rule="evenodd">
		<path fill="@color0@" d="M91.389 55.598 59.372.138 74.086 0l8.548 14.9L91.242.08l7.31.002 3.745 6.47L90.032 27.64l8.707 15.151z"/>
		<path fill="@color1@" d="m79.794 78.435 32.022-55.459 7.476 12.673-8.63 14.853 17.14.045 3.652 6.333-3.73 6.477-24.396-.077-8.768 15.116z"/>
		<path fill="@color2@" d="m54.116 79.902 64.04.003-7.238 12.812-17.178-.048 8.53 14.866-3.657 6.33-7.475.008-12.131-21.166-17.474-.036z"/>
		<path fill="@color3@" d="m40.104 58.413 32.017 55.46-14.714.138-8.548-14.9-8.608 14.82-7.31-.003-3.745-6.468 12.265-21.09-8.707-15.15z"/>
		<path fill="@color4@" d="M51.661 35.569 19.639 91.027l-7.476-12.674 8.63-14.852-17.14-.046L0 57.123l3.73-6.478 24.396.078 8.769-15.117z"/>
		<path fill="@color5@" d="m77.288 33.974-64.038-.003 7.237-12.812 17.178.047-8.53-14.865 3.657-6.33 7.475-.008 12.131 21.166 17.474.035z"/>
	</g>
</svg>
