<svg xmlns="http://www.w3.org/2000/svg" viewBox="-1152 -997.661 2304 1995.322">
    <path fill="@color0@" fill-opacity="@opacity0@" d="M624-249.415 496-27.713-64-997.66h256L320-775.96 448-997.66h128l64 110.851-192 332.554z"/>
    <path fill="@color1@" fill-opacity="@opacity1@" d="M528 415.692H272l560-969.948 128 221.702L832-110.85h256L1152 0l-64 110.851H704z"/>
    <path fill="@color2@" fill-opacity="@opacity2@" d="m-96 665.108-128-221.703H896L768 665.108H512L640 886.81l-64 110.851H448L256 665.108z"/>
    <path fill="@color3@" fill-opacity="@opacity3@" d="m-624 249.415 128-221.702L64 997.66h-256L-320 775.96-448 997.66h-128l-64-110.851 192-332.554z"/>
    <path fill="@color4@" fill-opacity="@opacity4@" d="M-528-415.692h256l-560 969.948-128-221.702 128-221.703h-256L-1152 0l64-110.851h384z"/>
    <path fill="@color5@" fill-opacity="@opacity5@" d="m96-665.108 128 221.703H-896l128-221.703h256L-640-886.81l64-110.851h128l192 332.553z"/>
</svg>
